<svg width="24" height="24" viewBox="0 0 24 24" fill="none" xmlns="http://www.w3.org/2000/svg">
<path d="M18.3377 3.30001H15.4502V2.66251C15.4502 1.53751 14.5502 0.637512 13.4252 0.637512H10.5377C9.4127 0.637512 8.5127 1.53751 8.5127 2.66251V3.30001H5.6252C4.5377 3.30001 3.6377 4.20001 3.6377 5.28751V6.41251C3.6377 7.23751 4.1252 7.91251 4.8377 8.21251L5.4377 20.625C5.5127 22.1625 6.7877 23.3625 8.3252 23.3625H15.6002C17.1377 23.3625 18.4127 22.1625 18.4877 20.625L19.1252 8.17501C19.8377 7.87501 20.3252 7.16251 20.3252 6.37501V5.25001C20.3252 4.20001 19.4252 3.30001 18.3377 3.30001ZM10.2377 2.66251C10.2377 2.47501 10.3877 2.32501 10.5752 2.32501H13.4627C13.6502 2.32501 13.8002 2.47501 13.8002 2.66251V3.30001H10.2752V2.66251H10.2377ZM5.3627 5.28751C5.3627 5.13751 5.4752 4.98751 5.6627 4.98751H18.3377C18.4877 4.98751 18.6377 5.10001 18.6377 5.28751V6.41251C18.6377 6.56251 18.5252 6.71251 18.3377 6.71251H5.6627C5.5127 6.71251 5.3627 6.60001 5.3627 6.41251V5.28751ZM15.6377 21.675H8.3627C7.72519 21.675 7.2002 21.1875 7.1627 20.5125L6.6002 8.36251H17.4377L16.8752 20.5125C16.8002 21.15 16.2752 21.675 15.6377 21.675Z" fill="#111928"/>
<path d="M12.0002 12.15C11.5502 12.15 11.1377 12.525 11.1377 13.0125V17.775C11.1377 18.225 11.5127 18.6375 12.0002 18.6375C12.4502 18.6375 12.8627 18.2625 12.8627 17.775V13.0125C12.8627 12.525 12.4502 12.15 12.0002 12.15Z" fill="#111928"/>
<path d="M15.0004 12.9C14.5129 12.8625 14.1379 13.2 14.1004 13.6875L13.8754 16.9875C13.8379 17.4375 14.1754 17.85 14.6629 17.8875C14.7004 17.8875 14.7004 17.8875 14.7379 17.8875C15.1879 17.8875 15.5629 17.55 15.5629 17.1L15.7879 13.8C15.7879 13.3125 15.4504 12.9375 15.0004 12.9Z" fill="#111928"/>
<path d="M8.96245 12.9C8.51245 12.9375 8.13745 13.35 8.17495 13.8L8.43745 17.1C8.47495 17.55 8.84995 17.8875 9.26245 17.8875C9.29995 17.8875 9.29995 17.8875 9.33745 17.8875C9.78745 17.85 10.1625 17.4375 10.125 16.9875L9.86245 13.6875C9.86245 13.2 9.44995 12.8625 8.96245 12.9Z" fill="#111928"/>
</svg>
