<svg width="22" height="24" viewBox="0 0 22 24" fill="none" xmlns="http://www.w3.org/2000/svg">
<path d="M11.7378 23.3378C9.2628 23.3378 6.82531 22.5503 4.83781 21.0128C2.17531 18.9878 0.562805 15.9128 0.375305 12.5378C0.150305 8.45034 2.32531 4.43783 5.85031 2.30033C7.87531 1.10033 10.0878 0.537835 12.4128 0.687835C12.9003 0.725335 13.3128 1.02533 13.4628 1.47534C13.6128 1.92533 13.5378 2.41284 13.2003 2.75034C11.2128 4.73783 10.3878 7.58783 10.9878 10.3253C11.8878 14.4128 15.7128 17.1878 19.8753 16.7753C20.3628 16.7378 20.8128 16.9628 21.0378 17.3753C21.2628 17.7878 21.2628 18.2753 20.9628 18.6503C19.3128 20.9003 16.9128 22.4753 14.1753 23.0753C13.3503 23.2628 12.5253 23.3378 11.7378 23.3378ZM11.2503 2.37534C9.67531 2.45034 8.13781 2.90034 6.71281 3.76284C3.71281 5.56284 1.87531 8.97533 2.06281 12.4253C2.21281 15.3128 3.60031 17.9378 5.85031 19.6628C8.10031 21.3878 11.0253 22.0253 13.8003 21.4253C15.7878 21.0128 17.5503 19.9628 18.9003 18.4628C14.3253 18.4253 10.3128 15.2003 9.30031 10.6628C8.66281 7.73783 9.37531 4.70034 11.2503 2.37534Z" fill="#9CA3AF"/>
</svg>
