<svg width="24" height="24" viewBox="0 0 24 24" fill="none" xmlns="http://www.w3.org/2000/svg">
<path d="M21.4875 6.97498C20.475 5.88748 19.0875 5.13748 17.625 4.87498C16.8 3.56248 15.6 2.58748 14.2125 2.09998C13.575 1.83748 12.825 1.72498 12.0375 1.72498C8.47505 1.72498 5.58755 4.49998 5.36255 7.98748C2.73755 8.32498 0.675049 10.5375 0.675049 13.275C0.675049 15.1875 1.65005 16.9125 3.30005 17.8875C3.41255 17.9625 3.56255 18 3.71255 18C4.01255 18 4.27505 17.85 4.42505 17.5875C4.65005 17.175 4.53755 16.65 4.12505 16.425C3.00005 15.7875 2.32505 14.5875 2.32505 13.275C2.32505 11.25 3.93755 9.63748 5.96255 9.63748H6.15005C6.60005 9.63748 7.01255 9.26248 7.01255 8.77498V8.39998C7.01255 5.66248 9.26255 3.41248 12 3.41248C12.6 3.41248 13.125 3.48748 13.6125 3.67498C14.775 4.08748 15.75 4.91248 16.35 6.03748C16.5 6.29998 16.725 6.44998 16.9875 6.48748C18.225 6.59998 19.3875 7.19998 20.25 8.09998C21.15 9.07498 21.675 10.35 21.675 11.6625C21.675 13.5 20.7375 15.15 19.2001 16.125C18.7875 16.3875 18.675 16.875 18.9375 17.2875C19.2 17.7 19.6875 17.8125 20.1 17.55C22.1625 16.275 23.3625 14.0625 23.3625 11.6625C23.3625 9.93748 22.6875 8.24998 21.4875 6.97498Z" fill="#111928"/>
<path d="M8.24995 15.075C7.79995 15.075 7.38745 15.45 7.38745 15.9375V21.45C7.38745 21.9 7.76245 22.3125 8.24995 22.3125C8.73745 22.3125 9.11245 21.9375 9.11245 21.45V15.9375C9.07495 15.45 8.69995 15.075 8.24995 15.075Z" fill="#111928"/>
<path d="M12 13.2374C11.55 13.2374 11.1375 13.6124 11.1375 14.0999V19.6124C11.1375 20.0624 11.5125 20.4749 12 20.4749C12.45 20.4749 12.8625 20.0999 12.8625 19.6124V14.0999C12.8625 13.6124 12.45 13.2374 12 13.2374Z" fill="#111928"/>
<path d="M15.75 15.075C15.3 15.075 14.8875 15.45 14.8875 15.9375V21.45C14.8875 21.9 15.2625 22.3125 15.75 22.3125C16.2375 22.3125 16.6125 21.9375 16.6125 21.45V15.9375C16.6125 15.45 16.2375 15.075 15.75 15.075Z" fill="#111928"/>
</svg>
