<svg width="24" height="24" viewBox="0 0 24 24" fill="none" xmlns="http://www.w3.org/2000/svg">
<path d="M21.45 4.68745C21.45 2.66245 19.8 1.01245 17.775 1.01245C17.325 1.01245 16.9125 1.38745 16.9125 1.87495C16.9125 2.36245 17.2875 2.73745 17.775 2.73745C18.8625 2.73745 19.7625 3.63745 19.7625 4.72495C19.7625 5.81245 18.8625 6.71245 17.775 6.71245H1.49995C1.04995 6.71245 0.637451 7.08745 0.637451 7.57495C0.637451 8.06245 1.01245 8.43745 1.49995 8.43745H17.775C19.8 8.36245 21.45 6.71245 21.45 4.68745Z" fill="#111928"/>
<path d="M4.8 11.5125C4.35 11.5125 3.9375 11.8875 3.9375 12.375C3.9375 12.8625 4.3125 13.2375 4.8 13.2375H15.975C16.425 13.2375 16.8375 12.8625 16.8375 12.375C16.8375 11.8875 16.4625 11.5125 15.975 11.5125H4.8Z" fill="#111928"/>
<path d="M19.65 16.3875H3.37495C2.92495 16.3875 2.51245 16.7625 2.51245 17.25C2.51245 17.7375 2.88745 18.1125 3.37495 18.1125H19.65C20.7374 18.1125 21.6374 19.0125 21.6374 20.1C21.6374 20.6625 21.4124 21.1875 20.9999 21.5625C20.6624 21.8625 20.625 22.425 20.9625 22.7625C21.1124 22.95 21.3749 23.025 21.5999 23.025C21.7874 23.025 22.0124 22.95 22.1624 22.8C22.9124 22.0875 23.3624 21.1125 23.3624 20.0625C23.3624 18.0375 21.6749 16.3875 19.65 16.3875Z" fill="#111928"/>
</svg>
